<svg version="1.2" xmlns="http://www.w3.org/2000/svg" viewBox="0 0 177 126" width="177" height="126"><style>.a{fill:#f00}</style><path class="a" d="m0 19h36.8v75h-36.8zm118.5 0h36.9v75h-36.9zm-45.9 15.6l5.2-10.7 5.3 10.3c0.6 1.1 1.1 1 2.2 0.5l4.5-2.2-3 14.4c-0.6 2.8 1 3.7 2.8 1.7l6.4-6.8 1.7 3.9c0.6 1.1 1.4 1 2.6 0.8l6.6-1.4-2.2 8.3v0.2c-0.3 1.1-0.8 2 0.4 2.5l2.3 1.2-13.6 11.5c-1.4 1.5-0.9 1.9-0.4 3.5l1.2 3.9-12.7-2.3c-1.5-0.4-2.6-0.4-2.7 0.9l0.5 14.5h-3.8l0.6-14.5c0-1.4-1.1-1.4-3.7-0.9l-11.8 2.3 1.5-3.9c0.5-1.5 0.7-2.5-0.5-3.5l-13.9-11.3 2.6-1.6c0.7-0.6 0.8-1.2 0.4-2.4l-2.6-8.5 6.7 1.4c1.8 0.5 2.4 0 2.8-1l1.9-3.8 6.6 7.4c1.2 1.4 2.8 0.5 2.3-1.5l-3.1-15.6 4.9 2.8c0.8 0.5 1.6 0.6 2.1-0.3"/></svg>